<svg width="14" height="12" viewBox="0 0 14 12" fill="none" xmlns="http://www.w3.org/2000/svg">
<path d="M0.637255 2.96983H2.12977V9.00699H0.637255V2.96983Z" fill="#BA00D9"/>
<rect x="0.644043" y="0.46991" width="1.50346" height="1.50346" fill="#BA00D9"/>
<path d="M0 11.9015V9.46792H7.17942C7.75884 9.46792 8.25398 9.37311 8.66484 9.18348C9.0757 8.98331 9.41282 8.70941 9.6762 8.36175C9.93957 8.0141 10.1345 7.61377 10.2609 7.16077C10.3873 6.70777 10.4505 6.22316 10.4505 5.70695C10.4505 4.83256 10.2187 4.15832 9.75521 3.68425C9.30221 3.19964 8.55423 2.95734 7.51127 2.95734H3.13401V0.523773C6.06734 0.523773 4.57794 0.523773 7.51127 0.523773C9.42863 0.523773 10.8719 0.971507 11.8411 1.86697C12.8209 2.75191 13.3107 4.02137 13.3107 5.67535C13.3107 6.50761 13.1896 7.29773 12.9473 8.04571C12.7155 8.79369 12.3468 9.45739 11.8411 10.0368C11.346 10.6162 10.7034 11.0745 9.91323 11.4116C9.12311 11.7382 8.16443 11.9015 7.0372 11.9015H0ZM3.13401 11.9015V0.523773H5.94683V11.9015H3.13401Z" fill="#BA00D9"/>
</svg>
